HIERARCHY
ROOT root
{
	OFFSET 0.000000 0.000000 0.000000
	CHANNELS 6 Xposition Yposition Zposition Zrotation Yrotation Xrotation
	JOINT lhip
	{
		OFFSET 0.058581 -0.082280 -0.017664
		CHANNELS 3 Zrotation Yrotation Xrotation
		JOINT lknee
		{
			OFFSET 0.043451 -0.386469 0.008037
			CHANNELS 3 Zrotation Yrotation Xrotation
			JOINT lankle
			{
				OFFSET -0.014790 -0.426874 -0.037428
				CHANNELS 3 Zrotation Yrotation Xrotation
				JOINT ltoe
				{
					OFFSET 0.041054 -0.060286 0.122042
					CHANNELS 3 Zrotation Yrotation Xrotation
					End Site
					{
						OFFSET 0.000000 0.000000 0.000000
					}
				}
			}
		}
	}
	JOINT rhip
	{
		OFFSET -0.060310 -0.090513 -0.013543
		CHANNELS 3 Zrotation Yrotation Xrotation
		JOINT rknee
		{
			OFFSET -0.043257 -0.383688 -0.004843
			CHANNELS 3 Zrotation Yrotation Xrotation
			JOINT rankle
			{
				OFFSET 0.019056 -0.420046 -0.034562
				CHANNELS 3 Zrotation Yrotation Xrotation
				JOINT rtoe
				{
					OFFSET -0.034840 -0.062106 0.130323
					CHANNELS 3 Zrotation Yrotation Xrotation
					End Site
					{
						OFFSET 0.000000 0.000000 0.000000
					}
				}
			}
		}
	}
	JOINT lowerback
	{
		OFFSET 0.004439 0.124404 -0.038385
		CHANNELS 3 Zrotation Yrotation Xrotation
		JOINT upperback
		{
			OFFSET 0.004488 0.137956 0.026820
			CHANNELS 3 Zrotation Yrotation Xrotation
			JOINT chest
			{
				OFFSET -0.002265 0.056032 0.002855
				CHANNELS 3 Zrotation Yrotation Xrotation
				JOINT lowerneck
				{
					OFFSET -0.013390 0.211636 -0.033468
					CHANNELS 3 Zrotation Yrotation Xrotation
					JOINT upperneck
					{
						OFFSET 0.010113 0.088937 0.050410
						CHANNELS 3 Zrotation Yrotation Xrotation
						End Site
						{
							OFFSET 0.000000 0.000000 0.000000
						}
					}
				}
				JOINT lclavicle
				{
					OFFSET 0.071702 0.114000 -0.018898
					CHANNELS 3 Zrotation Yrotation Xrotation
					JOINT lshoulder
					{
						OFFSET 0.122921 0.045205 -0.019046
						CHANNELS 3 Zrotation Yrotation Xrotation
						JOINT lelbow
						{
							OFFSET 0.255332 -0.015649 -0.022946
							CHANNELS 3 Zrotation Yrotation Xrotation
							JOINT lwrist
							{
								OFFSET 0.265709 0.012698 -0.007375
								CHANNELS 3 Zrotation Yrotation Xrotation
								End Site
								{
									OFFSET 0.000000 0.000000 0.000000
								}
							}
						}
					}
				}
				JOINT rclavicle
				{
					OFFSET -0.082954 0.112472 -0.023707
					CHANNELS 3 Zrotation Yrotation Xrotation
					JOINT rshoulder
					{
						OFFSET -0.113228 0.046853 -0.008472
						CHANNELS 3 Zrotation Yrotation Xrotation
						JOINT relbow
						{
							OFFSET -0.260127 -0.014369 -0.031269
							CHANNELS 3 Zrotation Yrotation Xrotation
							JOINT rwrist
							{
								OFFSET -0.269108 0.006794 -0.006027
								CHANNELS 3 Zrotation Yrotation Xrotation
								End Site
								{
									OFFSET 0.000000 0.000000 0.000000
								}
							}
						}
					}
				}
			}
		}
	}
}
MOTION
Frames: 14
Frame Time: 0.033333
0.512701 0.349488 1.008421 85.165118 7.067603 103.916476 1.958226 3.727944 -12.822589 3.458711 3.834749 -10.161999 1.846921 10.009135 0.707331 0.000000 -0.000000 0.000000 -5.431280 0.119397 -20.872754 -2.586646 -1.618930 2.360288 12.508276 -5.399998 7.369616 0.000000 -0.000000 0.000000 -4.215172 0.539940 7.693475 4.460745 -5.020817 3.016899 4.007767 0.744126 -4.750638 -1.525443 10.142570 5.874959 5.107751 13.173357 -6.253879 -3.210386 -18.188468 2.117624 -60.166432 -11.589147 20.852852 24.441089 -63.386819 -21.945751 -3.283232 -1.190654 -44.536870 6.274263 23.526857 2.512003 65.288874 27.759613 30.959057 44.821310 67.704223 39.277950 0.649717 -1.952926 -48.833334 
0.516966 0.349863 1.007679 84.744047 7.015936 103.062353 2.042195 3.617569 -11.763089 3.283336 4.126588 -9.686103 2.004555 10.108901 0.086136 0.000000 -0.000000 0.000000 -5.364944 -0.033457 -19.850792 -2.691461 -1.941007 2.433856 12.629952 -5.141788 6.857956 0.000000 -0.000000 0.000000 -4.393378 0.873167 6.242002 4.156700 -4.563936 3.546483 3.661705 1.140773 -4.942389 -1.162419 9.522125 6.809895 5.584983 13.018462 -5.189705 -3.443316 -15.897233 2.426025 -63.103265 -9.438413 22.218368 23.984770 -65.279813 -20.895251 -3.741412 -1.535001 -44.902928 6.582371 21.438667 3.034107 65.172560 25.117934 30.885143 52.515723 68.184833 47.360037 3.865671 -0.516862 -48.746647 
0.520849 0.350204 1.007123 84.378778 6.899554 102.204534 2.089008 3.542429 -10.873423 3.065426 4.137255 -8.914215 2.147686 10.320910 -0.663693 0.000000 -0.000000 0.000000 -5.387747 -0.212141 -18.658079 -2.803519 -2.262336 2.273764 12.731603 -4.900203 6.341882 0.000000 -0.000000 0.000000 -4.382956 1.032735 5.463202 3.769534 -4.074720 3.229913 3.376074 1.342131 -4.702967 -1.133309 8.912487 7.739434 5.605488 13.372198 -5.059618 -4.064790 -13.704523 2.573399 -65.548556 -6.959368 23.218062 23.705271 -66.952950 -20.084342 -3.402498 -1.230202 -44.873965 6.361064 19.928037 3.048348 64.016788 23.919270 31.204551 61.020770 67.292518 55.602483 5.389058 0.888458 -50.545103 
0.524030 0.350584 1.006506 84.088568 6.741173 101.404066 2.074506 3.472206 -10.056435 2.851183 4.015811 -8.204683 2.264199 10.587272 -1.394260 0.000000 -0.000000 0.000000 -5.505135 -0.401420 -17.479391 -2.851112 -2.455858 2.003898 12.899070 -4.889864 5.994519 0.000000 -0.000000 0.000000 -4.321473 1.150659 4.965336 3.295589 -3.690454 2.989872 3.068652 1.529482 -4.475928 -1.083243 8.172709 8.091426 5.750655 13.928336 -5.170542 -5.039452 -12.122261 2.701996 -67.314022 -4.806646 23.507138 24.397714 -68.296557 -20.638973 -3.428547 -0.413275 -44.558419 6.405651 18.990761 2.997986 62.051777 23.445543 30.901456 67.985080 66.408599 61.858378 6.541587 1.965392 -51.853247 
0.525957 0.350943 1.005897 83.767492 6.546336 100.669784 2.035031 3.489893 -9.339974 2.585529 3.889564 -7.611491 2.350607 10.803942 -1.984932 0.000000 -0.000000 0.000000 -5.651904 -0.599226 -16.595519 -2.882200 -2.454558 1.931473 12.874847 -4.840556 5.510669 0.000000 -0.000000 0.000000 -4.407403 1.363514 4.652653 2.871739 -3.326506 3.229162 2.848651 1.985690 -4.596719 -1.181026 7.513881 7.904634 6.224502 14.078684 -5.373723 -6.208305 -11.580092 2.868569 -68.133440 -3.461243 23.662194 25.552632 -69.528134 -21.874471 -2.783658 0.359560 -44.318203 6.831566 18.565787 3.089172 59.674066 22.740195 29.604233 72.662081 66.499507 65.979163 6.905346 2.651447 -51.576714 
0.526223 0.351452 1.005291 83.599476 6.409161 100.307459 1.981926 3.367152 -9.098049 2.482062 3.768449 -7.131288 2.478699 11.008223 -2.432981 0.000000 -0.000000 0.000000 -5.674137 -0.875929 -16.387281 -2.908903 -2.310001 2.197680 12.546609 -4.786730 4.830003 0.000000 -0.000000 0.000000 -4.314939 1.592571 4.659520 2.426121 -3.023007 3.196764 2.606625 2.283547 -4.834738 -1.141520 7.006961 7.229776 6.584679 14.483874 -5.357712 -7.660214 -11.073315 2.667056 -67.965233 -2.717157 24.109103 27.769531 -71.159431 -23.925411 -0.842806 1.563936 -43.077538 7.516946 18.041873 3.174073 57.681906 21.826636 28.390185 75.469742 67.723497 68.376242 7.761815 2.743396 -50.617636 
0.525633 0.351434 1.004805 83.531181 6.268211 100.313433 1.878199 3.178460 -9.145228 2.463568 3.684785 -7.007441 2.617874 11.235998 -2.663252 0.000000 -0.000000 0.000000 -5.649026 -1.118225 -16.680497 -2.986493 -2.218862 2.614725 12.236713 -4.901130 4.252807 0.000000 -0.000000 0.000000 -4.275430 1.765521 4.889057 1.962052 -2.754000 2.682027 2.396370 2.405312 -4.982095 -1.103672 6.580450 6.228023 6.914337 15.306517 -5.272539 -8.698670 -10.691046 2.003211 -67.628702 -2.253460 25.230716 33.325194 -72.835570 -28.529989 3.228382 4.192771 -40.772147 7.544377 17.632456 2.505322 55.510684 21.628697 28.610844 79.181104 68.083777 72.586576 7.029592 2.665200 -52.506857 
0.524196 0.350886 1.004596 83.920600 6.090410 100.647143 1.757231 2.786515 -9.552235 2.500343 3.644930 -7.044875 2.865907 11.201796 -2.641499 0.000000 -0.000000 0.000000 -5.639372 -1.352079 -17.014207 -3.126594 -2.310725 2.664214 12.047276 -5.307694 3.931507 0.000000 -0.000000 0.000000 -4.212931 1.837029 5.419989 1.547906 -2.786861 2.092444 2.058621 2.354146 -5.248250 -0.752442 6.459754 4.383253 6.996478 15.667523 -4.946305 -9.678359 -10.164337 1.401822 -66.813756 -2.423619 26.643649 41.813786 -74.133520 -35.049425 7.128303 6.101465 -37.946886 7.975377 16.477490 1.964153 54.872267 20.340684 29.476310 82.616705 70.615918 79.510804 5.473723 0.310305 -55.728154 
0.522991 0.349845 1.004548 84.410924 6.023408 101.150569 1.844610 2.626862 -10.155285 2.397336 3.339089 -7.128230 2.776647 11.252379 -2.621492 0.000000 -0.000000 0.000000 -5.531147 -1.555443 -17.327397 -3.179999 -2.198919 2.396136 11.731957 -5.688711 3.856765 0.000000 -0.000000 0.000000 -4.112657 1.778907 5.873508 1.190617 -2.924272 1.752869 1.729776 2.166434 -5.575286 -0.583030 6.278055 2.210770 6.966338 16.072830 -4.431369 -11.553240 -9.278437 0.585451 -64.725112 -2.542806 27.402922 47.109546 -75.806695 -39.305229 11.231538 6.987359 -34.273938 9.321874 15.043086 1.596203 53.291755 19.603110 29.726792 86.447053 71.203219 84.812355 2.210233 -0.776576 -56.232288 
0.521634 0.348186 1.004707 85.035247 5.993361 101.930444 1.978433 2.402682 -10.932783 2.315749 2.971307 -7.410142 2.891897 11.226587 -2.546761 0.000000 -0.000000 0.000000 -5.485844 -1.664126 -17.837373 -3.132151 -2.083665 2.069688 11.360430 -6.184346 3.904544 0.000000 -0.000000 0.000000 -4.037538 1.549016 6.558787 1.046940 -3.226567 0.873314 1.309232 1.862657 -5.920851 -0.437873 5.925710 -0.297657 7.312690 16.487910 -3.346224 -14.044582 -7.858582 -0.262775 -62.063629 -2.528430 28.326051 50.853258 -76.912173 -43.382185 13.848602 7.303489 -31.985116 11.605415 12.852190 1.157669 52.457290 18.453475 30.499131 86.437108 71.919275 87.016582 -1.668302 -2.669430 -54.712223 
0.521545 0.345766 1.004430 85.349218 6.091644 102.940242 2.218585 2.291125 -11.714422 2.269262 2.862400 -7.978736 3.028198 11.200258 -2.387458 0.000000 -0.000000 0.000000 -5.358162 -1.617769 -18.575710 -3.024373 -2.021421 1.691429 11.121049 -6.470493 4.064162 0.000000 -0.000000 0.000000 -4.235251 1.420232 6.609139 1.160122 -3.559940 0.381166 1.032296 1.659494 -6.327020 -0.567498 5.822195 -2.364329 8.013446 16.633359 -2.462019 -16.396651 -6.439019 -1.025765 -59.948302 -2.678871 29.161121 49.135389 -76.663088 -43.022028 14.220918 7.299507 -31.605137 14.108005 10.584403 0.606337 52.315861 16.669927 31.024477 80.952745 72.608842 82.150873 -3.365056 -3.682621 -52.929401 
0.521531 0.342991 1.003939 86.079790 6.112000 103.869814 2.430020 2.044178 -12.685924 2.247610 2.533706 -8.056281 3.065829 11.215674 -2.458566 0.000000 -0.000000 0.000000 -5.290501 -1.791128 -19.032672 -2.841604 -2.076796 1.215289 10.673918 -6.802939 4.236038 0.000000 -0.000000 0.000000 -4.230148 1.146391 6.972219 1.163130 -4.040039 -0.178504 0.774333 1.410279 -6.659188 -0.844308 5.558895 -4.037034 8.193728 16.519075 -2.346325 -18.489931 -5.388728 -2.206355 -57.773763 -3.700481 29.869494 40.910622 -75.135821 -37.106165 13.736962 7.585345 -31.770694 16.133773 8.972123 -0.339666 51.904239 15.819667 31.426468 73.316908 72.166503 72.824473 -2.682468 -3.945690 -52.242594 
0.520178 0.340631 1.002895 86.426821 6.022283 104.309675 2.411365 1.903086 -13.228115 2.348759 2.204235 -8.156474 3.178215 11.330832 -2.378144 0.000000 -0.000000 0.000000 -5.455687 -1.592413 -19.380658 -2.663843 -1.952584 1.109623 10.224267 -7.229839 4.356074 0.000000 -0.000000 0.000000 -3.991684 0.768468 8.379115 0.681973 -4.089824 -1.277640 0.388876 1.382417 -6.436296 -1.252665 5.743273 -5.890513 8.274087 16.227737 -2.835827 -19.866998 -5.950091 -3.555883 -55.739334 -5.830890 30.351236 36.809583 -71.998777 -35.380630 14.075231 8.436741 -31.584373 17.561267 8.556679 -1.133046 52.429650 15.176288 31.168691 67.013468 73.172468 65.178769 -3.660182 -5.408851 -48.850417 
0.518589 0.336672 1.002802 86.803250 6.027873 104.817639 2.749584 1.803326 -13.830674 2.242199 2.128933 -8.283786 2.941116 11.202700 -2.269923 0.000000 -0.000000 0.000000 -5.321214 -1.535676 -19.734529 -2.570346 -2.007843 0.835875 9.910633 -7.273166 4.632329 0.000000 -0.000000 0.000000 -4.226726 0.762521 9.582601 0.447570 -4.295099 -1.761608 0.338219 1.229051 -6.612971 -1.496883 6.309042 -7.618958 8.238345 15.561570 -3.267406 -20.415305 -7.432168 -4.977723 -53.560558 -8.942143 30.028991 35.686170 -68.940691 -35.918457 12.783771 7.220044 -32.095060 18.060445 9.710154 -1.920695 52.059795 16.279241 30.776563 67.870016 74.422842 64.641003 -2.030605 -3.489676 -48.579319 
